<svg width="25" height="25" viewBox="0 0 25 25" fill="none" xmlns="http://www.w3.org/2000/svg">
<path opacity="0.4" fill-rule="evenodd" clip-rule="evenodd" d="M6.726 15.2303C7.911 14.6743 8.869 15.0183 9.796 15.3523C10.495 15.6043 11.219 15.8643 12.22 15.8643C12.998 15.8643 13.457 15.1773 14.12 14.0433C14.78 12.9163 15.601 11.5133 17.259 11.5133C19.563 11.5133 20.991 12.9663 21.959 14.0373C21.984 13.5793 22 13.1053 22 12.6043C22 5.40528 19.448 2.85428 12.25 2.85428C5.052 2.85428 2.5 5.40528 2.5 12.6043C2.5 15.2893 2.856 17.3273 3.676 18.8283C4.192 17.8113 5.314 15.8933 6.726 15.2303Z" fill="black"/>
<path fill-rule="evenodd" clip-rule="evenodd" d="M21.4818 15.736C21.3348 15.585 21.1788 15.412 21.0118 15.225C20.1278 14.24 19.0268 13.013 17.2588 13.013C16.5148 13.013 16.0658 13.689 15.4158 14.801C14.7468 15.944 13.9158 17.365 12.2198 17.365C10.9568 17.365 10.0318 17.032 9.2878 16.763C8.4118 16.447 7.9598 16.307 7.3648 16.588C6.2328 17.12 5.0968 19.266 4.7548 20.048C4.7348 20.096 4.7038 20.135 4.6748 20.177C6.2118 21.716 8.6498 22.354 12.2508 22.354C18.2098 22.354 20.9778 20.596 21.7568 15.91C21.6558 15.872 21.5618 15.818 21.4818 15.736Z" fill="black"/>
<path d="M11.3491 9.38823C11.3491 8.14223 10.3341 7.12723 9.08815 7.12723C7.84215 7.12723 6.82715 8.14223 6.82715 9.38823C6.82715 10.6342 7.84215 11.6482 9.08815 11.6482C10.3341 11.6482 11.3491 10.6342 11.3491 9.38823Z" fill="black"/>
</svg>
