<svg width="25" height="24" viewBox="0 0 25 24" fill="none" xmlns="http://www.w3.org/2000/svg">
<path opacity="0.4" fill-rule="evenodd" clip-rule="evenodd" d="M11.3565 12.8935C11.3694 12.952 11.3842 13.0177 11.4006 13.0901C11.4738 13.4129 11.581 13.8689 11.7172 14.4029C11.989 15.4683 12.3788 16.8546 12.8475 18.1153C13.0818 18.7456 13.339 19.353 13.6149 19.877C13.8872 20.3943 14.194 20.8618 14.5381 21.1863C14.8813 21.5099 15.3414 21.7598 15.8734 21.6332C16.3742 21.5141 16.7676 21.0965 17.0902 20.5377C18.1385 18.7215 19.5304 14.7631 20.5433 11.0839C21.0521 9.23605 21.4716 7.43598 21.7073 5.98445C21.825 5.2598 21.8989 4.60998 21.9128 4.07877C21.9243 3.64061 21.9223 3.14277 21.7108 2.74554C21.664 2.65781 21.5922 2.58599 21.5045 2.53926C21.1072 2.3277 20.6094 2.32574 20.1712 2.33721C19.64 2.35111 18.9902 2.425 18.2656 2.54268C16.814 2.77839 15.014 3.1979 13.1661 3.70668C9.48696 4.71966 5.52852 6.11147 3.71239 7.15979C3.15349 7.48242 2.73593 7.87579 2.61678 8.37658C2.49019 8.90862 2.74015 9.36868 3.06377 9.71193C3.38819 10.056 3.85573 10.3628 4.37304 10.6352C4.89706 10.9111 5.50445 11.1682 6.13473 11.4025C7.39547 11.8712 8.78173 12.261 9.84714 12.5328C10.3811 12.669 10.8371 12.7762 11.1599 12.8494C11.2323 12.8659 11.2981 12.8806 11.3565 12.8935Z" fill="black"/>
<path fill-rule="evenodd" clip-rule="evenodd" d="M19.0624 5.60294C19.3553 5.89583 19.3553 6.37071 19.0624 6.6636L13.5306 12.1954C13.2377 12.4883 12.7628 12.4883 12.4699 12.1954C12.177 11.9025 12.177 11.4276 12.4699 11.1347L18.0017 5.60294C18.2946 5.31005 18.7695 5.31005 19.0624 5.60294Z" fill="black"/>
</svg>
