<svg width="25" height="25" viewBox="0 0 25 25" fill="none" xmlns="http://www.w3.org/2000/svg">
<path opacity="0.4" fill-rule="evenodd" clip-rule="evenodd" d="M9.06137 5.10979C3.59137 5.10979 1.65137 7.05979 1.65137 12.5398C1.65137 18.0198 3.59137 19.9598 9.06137 19.9598C14.5214 19.9598 16.4514 18.0198 16.4514 12.5398C16.4514 7.05979 14.5214 5.10979 9.06137 5.10979Z" fill="black"/>
<path fill-rule="evenodd" clip-rule="evenodd" d="M22.1513 7.46984C21.3713 6.62984 18.9713 8.13984 17.6113 9.09984C17.8413 10.0898 17.9513 11.2398 17.9513 12.5398C17.9513 13.8298 17.8413 14.9598 17.6213 15.9498C18.7113 16.7198 20.4913 17.8498 21.5313 17.8498C21.7913 17.8498 22.0113 17.7798 22.1513 17.6198C23.0813 16.6298 23.0813 8.46984 22.1513 7.46984Z" fill="black"/>
</svg>
